<?xml version="1.0" standalone="no"?><!DOCTYPE svg PUBLIC "-//W3C//DTD SVG 1.1//EN" "http://www.w3.org/Graphics/SVG/1.1/DTD/svg11.dtd"><svg t="1709789159065" class="icon" viewBox="0 0 1024 1024" version="1.1" xmlns="http://www.w3.org/2000/svg" p-id="17989" xmlns:xlink="http://www.w3.org/1999/xlink" width="200" height="200"><path d="M505.088 514.7136m-450.816 0a450.816 450.816 0 1 0 901.632 0 450.816 450.816 0 1 0-901.632 0Z" fill="#59ADF8" p-id="17990"></path><path d="M314.112 253.6448v375.9616s143.9232-16.3328 172.288 31.6416c0-81.3568 1.4848-369.6128 1.4848-369.6128s-31.232-47.4624-173.7728-37.9904zM707.6352 253.6448v375.9616s-143.9232-16.3328-172.288 31.6416c0-81.3568-1.4848-369.6128-1.4848-369.6128s31.232-47.4624 173.7728-37.9904z" fill="#FFFFFF" p-id="17991"></path><path d="M510.6176 788.6336c-6.6048 0-13.1584-2.1504-18.5856-6.4512l-57.1392-45.1072H256.5632c-16.5888 0-30.0032-13.4144-30.0032-30.0032V315.2896l60.0064-25.7024v387.4816h158.7712c6.7584 0 13.312 2.2528 18.5856 6.4512l48.3328 38.1952 56.2176-36.864a29.7472 29.7472 0 0 1 16.4352-4.9152h149.8112V293.376l60.0064 25.7024v390.8096c0 16.5888-13.4144 30.0032-30.0032 30.0032h-170.8544l-66.816 43.8272c-5.0176 3.2768-10.7008 4.9152-16.4352 4.9152z" fill="#FFFFFF" p-id="17992"></path></svg>