<?xml version="1.0" encoding="utf-8"?>
<svg xmlns="http://www.w3.org/2000/svg" xmlns:xlink="http://www.w3.org/1999/xlink" style="margin: auto; background: rgb(255, 255, 255); display: block; z-index: 1; position: relative; shape-rendering: auto;" width="1912" height="966" preserveAspectRatio="xMidYMid" viewBox="0 0 1912 966">
<g transform="translate(956,483) scale(1,1) translate(-956,-483)"><path id="path0" d="M 964.3658776575049 399.4415853901007
c 0 20.6082013745883 -5.042432251229052 5.919376990573236 -10.961809241802287 5.919376990573236
S 942.4422591739004 420.04978676468903 942.4422591739004 399.4415853901007
s 5.042432251229052 -5.919376990573236 10.961809241802287 -5.919376990573236
S 964.3658776575049 378.8333840155124 964.3658776575049 399.4415853901007
z" fill="none" stroke="none"></path>
<circle cx="0" cy="0" r="4.985183286217832" fill="#ff708e" opacity="0.9">
  <animateMotion begin="-9.647554014750213s" dur="10s" repeatCount="indefinite">
    <mpath xlink:href="#path0"></mpath>
  </animateMotion>
</circle><path id="path1" d="M 593.3507945796065 771.3126677626705
c 0 28.222116695359748 -6.905411531843343 8.106352667816099 -15.01176419965944 8.106352667816099
S 563.3272661802877 799.5347844580302 563.3272661802877 771.3126677626705
s 6.905411531843343 -8.106352667816099 15.01176419965944 -8.106352667816099
S 593.3507945796065 743.0905510673107 593.3507945796065 771.3126677626705
z" fill="none" stroke="none"></path>
<circle cx="0" cy="0" r="4.456929672808786" fill="#e0ff77" opacity="0.9">
  <animateMotion begin="-4.884339557734907s" dur="10s" repeatCount="indefinite">
    <mpath xlink:href="#path1"></mpath>
  </animateMotion>
</circle><path id="path2" d="M 953.0747995701284 247.5414305923472
c 0 34.43626971423112 -8.425895781141657 9.891268960470642 -18.3171647416123 9.891268960470642
S 916.4404700869039 281.97770030657836 916.4404700869039 247.5414305923472
s 8.425895781141657 -9.891268960470642 18.3171647416123 -9.891268960470642
S 953.0747995701284 213.1051608781161 953.0747995701284 247.5414305923472
z" fill="none" stroke="none"></path>
<circle cx="0" cy="0" r="6.834628728707115" fill="#e0ff77" opacity="0.9">
  <animateMotion begin="-8.291985885306767s" dur="10s" repeatCount="indefinite">
    <mpath xlink:href="#path2"></mpath>
  </animateMotion>
</circle><path id="path3" d="M 1129.8062142005294 813.0550685606983
c 0 30.463100909077532 -7.453737456476417 8.750039622820143 -16.20377707929656 8.750039622820143
S 1097.3986600419364 843.5181694697758 1097.3986600419364 813.0550685606983
s 7.453737456476417 -8.750039622820143 16.20377707929656 -8.750039622820143
S 1129.8062142005294 782.5919676516207 1129.8062142005294 813.0550685606983
z" fill="none" stroke="none"></path>
<circle cx="0" cy="0" r="5.548445134128617" fill="#51cacc" opacity="0.9">
  <animateMotion begin="-9.327307508844724s" dur="10s" repeatCount="indefinite">
    <mpath xlink:href="#path3"></mpath>
  </animateMotion>
</circle><path id="path4" d="M 158.7580438216368 739.83014012574
c 0 19.690946141876694 -4.817997460246424 5.655910062028412 -10.473907522274837 5.655910062028412
S 137.81022877708713 759.5210862676166 137.81022877708713 739.83014012574
s 4.817997460246424 -5.655910062028412 10.473907522274837 -5.655910062028412
S 158.7580438216368 720.1391939838633 158.7580438216368 739.83014012574
z" fill="none" stroke="none"></path>
<circle cx="0" cy="0" r="7.645116509535246" fill="#ff708e" opacity="0.9">
  <animateMotion begin="-5.3323750166057815s" dur="10s" repeatCount="indefinite">
    <mpath xlink:href="#path4"></mpath>
  </animateMotion>
</circle><path id="path5" d="M 605.8109837661149 879.2900481907889
c 0 25.447260536984082 -6.226457365432275 7.309319515942236 -13.53577688137451 7.309319515942236
S 578.7394300033658 904.737308727773 578.7394300033658 879.2900481907889
s 6.226457365432275 -7.309319515942236 13.53577688137451 -7.309319515942236
S 605.8109837661149 853.8427876538047 605.8109837661149 879.2900481907889
z" fill="none" stroke="none"></path>
<circle cx="0" cy="0" r="5.616631803200628" fill="#de9dd6" opacity="0.9">
  <animateMotion begin="-4.312116853564216s" dur="10s" repeatCount="indefinite">
    <mpath xlink:href="#path5"></mpath>
  </animateMotion>
</circle><path id="path6" d="M 231.30311489603827 209.24499080659749
c 0 31.020543474697558 -7.590132977851529 8.910156104434405 -16.500289082285935 8.910156104434405
S 198.30253673146638 240.26553428129503 198.30253673146638 209.24499080659749
s 7.590132977851529 -8.910156104434405 16.500289082285935 -8.910156104434405
S 231.30311489603827 178.22444733189994 231.30311489603827 209.24499080659749
z" fill="none" stroke="none"></path>
<circle cx="0" cy="0" r="7.4602285260716545" fill="#de9dd6" opacity="0.9">
  <animateMotion begin="-8.318730561862107s" dur="10s" repeatCount="indefinite">
    <mpath xlink:href="#path6"></mpath>
  </animateMotion>
</circle><path id="path7" d="M 173.240285900991 353.4684113431531
c 0 34.51430468030452 -8.444989443053233 9.913683259236405 -18.35867270228964 9.913683259236405
S 136.52294049641176 387.9827160234576 136.52294049641176 353.4684113431531
s 8.444989443053233 -9.913683259236405 18.35867270228964 -9.913683259236405
S 173.240285900991 318.9541066628486 173.240285900991 353.4684113431531
z" fill="none" stroke="none"></path>
<circle cx="0" cy="0" r="4.247963094229123" fill="#9df871" opacity="0.9">
  <animateMotion begin="-3.306247134453002s" dur="10s" repeatCount="indefinite">
    <mpath xlink:href="#path7"></mpath>
  </animateMotion>
</circle><path id="path8" d="M 1204.2062102933023 862.7065431179731
c 0 25.790985738596056 -6.31056034029478 7.408049095128655 -13.718609435423435 7.408049095128655
S 1176.7689914224557 888.4975288565691 1176.7689914224557 862.7065431179731
s 6.31056034029478 -7.408049095128655 13.718609435423435 -7.408049095128655
S 1204.2062102933023 836.915557379377 1204.2062102933023 862.7065431179731
z" fill="none" stroke="none"></path>
<circle cx="0" cy="0" r="4.955857141352716" fill="#ff708e" opacity="0.9">
  <animateMotion begin="-1.0758511800466075s" dur="10s" repeatCount="indefinite">
    <mpath xlink:href="#path8"></mpath>
  </animateMotion>
</circle><path id="path9" d="M 1732.9217520261539 453.4544315809263
c 0 34.23468110149659 -8.376570907812996 9.833365848302213 -18.20993675611521 9.833365848302213
S 1696.5018785139234 487.6891126824229 1696.5018785139234 453.4544315809263
s 8.376570907812996 -9.833365848302213 18.20993675611521 -9.833365848302213
S 1732.9217520261539 419.21975047942976 1732.9217520261539 453.4544315809263
z" fill="none" stroke="none"></path>
<circle cx="0" cy="0" r="6.795478356927827" fill="#51cacc" opacity="0.9">
  <animateMotion begin="-8.10801544142889s" dur="10s" repeatCount="indefinite">
    <mpath xlink:href="#path9"></mpath>
  </animateMotion>
</circle><path id="path10" d="M 1207.6749127381804 527.7089009352893
c 0 19.90760551170862 -4.871009859247854 5.718142008682264 -10.589151867930118 5.718142008682264
S 1186.4966090023204 547.616506446998 1186.4966090023204 527.7089009352893
s 4.871009859247854 -5.718142008682264 10.589151867930118 -5.718142008682264
S 1207.6749127381804 507.8012954235807 1207.6749127381804 527.7089009352893
z" fill="none" stroke="none"></path>
<circle cx="0" cy="0" r="5.388973970031515" fill="#de9dd6" opacity="0.9">
  <animateMotion begin="-8.198990795822327s" dur="10s" repeatCount="indefinite">
    <mpath xlink:href="#path10"></mpath>
  </animateMotion>
</circle><path id="path11" d="M 1710.852388861188 917.04386757314
c 0 32.97446538449337 -8.068220253652632 9.471388993418309 -17.53960924707094 9.471388993418309
S 1675.773170367046 950.0183329576333 1675.773170367046 917.04386757314
s 8.068220253652632 -9.471388993418309 17.53960924707094 -9.471388993418309
S 1710.852388861188 884.0694021886467 1710.852388861188 917.04386757314
z" fill="none" stroke="none"></path>
<circle cx="0" cy="0" r="4.160245753622767" fill="#9df871" opacity="0.9">
  <animateMotion begin="-3.5449746897284307s" dur="10s" repeatCount="indefinite">
    <mpath xlink:href="#path11"></mpath>
  </animateMotion>
</circle><path id="path12" d="M 1847.436896739552 84.4063557121014
c 0 35.7632544147737 -8.750583527019096 10.27242414041372 -19.023007667432815 10.27242414041372
S 1809.390881404686 120.1696101268751 1809.390881404686 84.4063557121014
s 8.750583527019096 -10.27242414041372 19.023007667432815 -10.27242414041372
S 1847.436896739552 48.6431012973277 1847.436896739552 84.4063557121014
z" fill="none" stroke="none"></path>
<circle cx="0" cy="0" r="6.413873385106269" fill="#de9dd6" opacity="0.9">
  <animateMotion begin="-1.3954946530322299s" dur="10s" repeatCount="indefinite">
    <mpath xlink:href="#path12"></mpath>
  </animateMotion>
</circle><path id="path13" d="M 1692.0401657765324 897.6606182907101
c 0 35.52277572916991 -8.691742997562848 10.203350475399867 -18.895093472962717 10.203350475399867
S 1654.2499788306068 933.18339401988 1654.2499788306068 897.6606182907101
s 8.691742997562848 -10.203350475399867 18.895093472962717 -10.203350475399867
S 1692.0401657765324 862.1378425615402 1692.0401657765324 897.6606182907101
z" fill="none" stroke="none"></path>
<circle cx="0" cy="0" r="5.637765000112192" fill="#de9dd6" opacity="0.9">
  <animateMotion begin="-2.6627925577445932s" dur="10s" repeatCount="indefinite">
    <mpath xlink:href="#path13"></mpath>
  </animateMotion>
</circle><path id="path14" d="M 469.33994900395163 289.38420214357586
c 0 37.20656653373469 -9.103734364637209 10.6869925150089 -19.790726879646108 10.6869925150089
S 429.7584952446594 326.59076867731056 429.7584952446594 289.38420214357586
s 9.103734364637209 -10.6869925150089 19.790726879646108 -10.6869925150089
S 469.33994900395163 252.17763560984116 469.33994900395163 289.38420214357586
z" fill="none" stroke="none"></path>
<circle cx="0" cy="0" r="5.075197806504583" fill="#51cacc" opacity="0.9">
  <animateMotion begin="-0.02945955464570771s" dur="10s" repeatCount="indefinite">
    <mpath xlink:href="#path14"></mpath>
  </animateMotion>
</circle><path id="path15" d="M 147.4082506006901 578.0079030926828
c 0 31.708697049525536 -7.758510980203056 9.107817237629675 -16.86632821783273 9.107817237629675
S 113.67559416502463 609.7166001422083 113.67559416502463 578.0079030926828
s 7.758510980203056 -9.107817237629675 16.86632821783273 -9.107817237629675
S 147.4082506006901 546.2992060431573 147.4082506006901 578.0079030926828
z" fill="none" stroke="none"></path>
<circle cx="0" cy="0" r="7.77278139104109" fill="#ff708e" opacity="0.9">
  <animateMotion begin="-8.508723158575915s" dur="10s" repeatCount="indefinite">
    <mpath xlink:href="#path15"></mpath>
  </animateMotion>
</circle><path id="path16" d="M 700.0961588537931 531.0016808854753
c 0 33.77417920621147 -8.263894912158126 9.701094027316062 -17.964988939474186 9.701094027316062
S 664.1661809748447 564.7758600916867 664.1661809748447 531.0016808854753
s 8.263894912158126 -9.701094027316062 17.964988939474186 -9.701094027316062
S 700.0961588537931 497.2275016792638 700.0961588537931 531.0016808854753
z" fill="none" stroke="none"></path>
<circle cx="0" cy="0" r="4.952138635857528" fill="#ff708e" opacity="0.9">
  <animateMotion begin="-8.16255930374535s" dur="10s" repeatCount="indefinite">
    <mpath xlink:href="#path16"></mpath>
  </animateMotion>
</circle><path id="path17" d="M 1268.4890195570538 60.280944969436135
c 0 26.93546158180764 -6.590591663633784 7.736781518178791 -14.327373181812575 7.736781518178791
S 1239.8342731934285 87.21640655124378 1239.8342731934285 60.280944969436135
s 6.590591663633784 -7.736781518178791 14.327373181812575 -7.736781518178791
S 1268.4890195570538 33.34548338762849 1268.4890195570538 60.280944969436135
z" fill="none" stroke="none"></path>
<circle cx="0" cy="0" r="6.720531226237226" fill="#51cacc" opacity="0.9">
  <animateMotion begin="-6.806851663021312s" dur="10s" repeatCount="indefinite">
    <mpath xlink:href="#path17"></mpath>
  </animateMotion>
</circle><path id="path18" d="M 977.5136572377468 910.3975768115464
c 0 30.710438838277724 -7.514256311493485 8.821083496101048 -16.335339807594533 8.821083496101048
S 944.8429776225577 941.1080156498241 944.8429776225577 910.3975768115464
s 7.514256311493485 -8.821083496101048 16.335339807594533 -8.821083496101048
S 977.5136572377468 879.6871379732687 977.5136572377468 910.3975768115464
z" fill="none" stroke="none"></path>
<circle cx="0" cy="0" r="5.706840553946269" fill="#51cacc" opacity="0.9">
  <animateMotion begin="-7.029660650757248s" dur="10s" repeatCount="indefinite">
    <mpath xlink:href="#path18"></mpath>
  </animateMotion>
</circle><path id="path19" d="M 592.2319830950233 130.37761337016028
c 0 23.091242914726998 -5.649984968497031 6.632591049974776 -12.282576018471808 6.632591049974776
S 567.6668310580798 153.46885628488727 567.6668310580798 130.37761337016028
s 5.649984968497031 -6.632591049974776 12.282576018471808 -6.632591049974776
S 592.2319830950233 107.28637045543329 592.2319830950233 130.37761337016028
z" fill="none" stroke="none"></path>
<circle cx="0" cy="0" r="4.328715620316369" fill="#de9dd6" opacity="0.9">
  <animateMotion begin="-4.435619252370724s" dur="10s" repeatCount="indefinite">
    <mpath xlink:href="#path19"></mpath>
  </animateMotion>
</circle><path id="path20" d="M 419.91991068745824 339.78894453007024
c 0 30.694263940321346 -7.510298623695648 8.816437514773153 -16.3267361384688 8.816437514773153
S 387.26643841052066 370.48320847039156 387.26643841052066 339.78894453007024
s 7.510298623695648 -8.816437514773153 16.3267361384688 -8.816437514773153
S 419.91991068745824 309.0946805897489 419.91991068745824 339.78894453007024
z" fill="none" stroke="none"></path>
<circle cx="0" cy="0" r="6.237532358160242" fill="#ff708e" opacity="0.9">
  <animateMotion begin="-6.792977759143306s" dur="10s" repeatCount="indefinite">
    <mpath xlink:href="#path20"></mpath>
  </animateMotion>
</circle><path id="path21" d="M 537.6607687353628 730.7414143614586
c 0 28.75941652223682 -7.036878510760072 8.260683469153129 -15.297561979913201 8.260683469153129
S 507.0656447755364 759.5008308836955 507.0656447755364 730.7414143614586
s 7.036878510760072 -8.260683469153129 15.297561979913201 -8.260683469153129
S 537.6607687353628 701.9819978392218 537.6607687353628 730.7414143614586
z" fill="none" stroke="none"></path>
<circle cx="0" cy="0" r="6.05482905758233" fill="#de9dd6" opacity="0.9">
  <animateMotion begin="-2.1361263899962335s" dur="10s" repeatCount="indefinite">
    <mpath xlink:href="#path21"></mpath>
  </animateMotion>
</circle><path id="path22" d="M 1083.7496566794923 664.7091658191521
c 0 27.565470866742796 -6.744742871649832 7.91774163193676 -14.662484503586592 7.91774163193676
S 1054.4246876723194 692.2746366858948 1054.4246876723194 664.7091658191521
s 6.744742871649832 -7.91774163193676 14.662484503586592 -7.91774163193676
S 1083.7496566794923 637.1436949524093 1083.7496566794923 664.7091658191521
z" fill="none" stroke="none"></path>
<circle cx="0" cy="0" r="7.3387107693017795" fill="#51cacc" opacity="0.9">
  <animateMotion begin="-1.8545831035194515s" dur="10s" repeatCount="indefinite">
    <mpath xlink:href="#path22"></mpath>
  </animateMotion>
</circle><path id="path23" d="M 1527.1297963422455 217.30261199678426
c 0 19.3696996148363 -4.739394586608881 5.563637123410427 -10.303031710019308 5.563637123410427
S 1506.523732922207 236.67231161162056 1506.523732922207 217.30261199678426
s 4.739394586608881 -5.563637123410427 10.303031710019308 -5.563637123410427
S 1527.1297963422455 197.93291238194797 1527.1297963422455 217.30261199678426
z" fill="none" stroke="none"></path>
<circle cx="0" cy="0" r="4.857013886210535" fill="#de9dd6" opacity="0.9">
  <animateMotion begin="-7.696373717061473s" dur="10s" repeatCount="indefinite">
    <mpath xlink:href="#path23"></mpath>
  </animateMotion>
</circle><path id="path24" d="M 1767.839409038567 155.28697104822845
c 0 20.39779716758669 -4.990950370792487 5.858941739625964 -10.849892110418452 5.858941739625964
S 1746.13962481773 175.68476821581515 1746.13962481773 155.28697104822845
s 4.990950370792487 -5.858941739625964 10.849892110418452 -5.858941739625964
S 1767.839409038567 134.88917388064175 1767.839409038567 155.28697104822845
z" fill="none" stroke="none"></path>
<circle cx="0" cy="0" r="4.264885294723898" fill="#e0ff77" opacity="0.9">
  <animateMotion begin="-7.3262351394357434s" dur="10s" repeatCount="indefinite">
    <mpath xlink:href="#path24"></mpath>
  </animateMotion>
</circle><path id="path25" d="M 183.96833627463826 461.7705736418907
c 0 26.06849337334813 -6.3784611445426265 7.487758734897867 -13.866219879440493 7.487758734897867
S 156.23589651575725 487.8390670152388 156.23589651575725 461.7705736418907
s 6.3784611445426265 -7.487758734897867 13.866219879440493 -7.487758734897867
S 183.96833627463826 435.70208026854255 183.96833627463826 461.7705736418907
z" fill="none" stroke="none"></path>
<circle cx="0" cy="0" r="4.205498982828628" fill="#51cacc" opacity="0.9">
  <animateMotion begin="-2.1908287146945593s" dur="10s" repeatCount="indefinite">
    <mpath xlink:href="#path25"></mpath>
  </animateMotion>
</circle><path id="path26" d="M 141.82104730923305 161.12213702142776
c 0 32.40830777084231 -7.929692326908224 9.308769253327046 -17.23846158023527 9.308769253327046
S 107.3441241487625 193.5304447922701 107.3441241487625 161.12213702142776
s 7.929692326908224 -9.308769253327046 17.23846158023527 -9.308769253327046
S 141.82104730923305 128.71382925058543 141.82104730923305 161.12213702142776
z" fill="none" stroke="none"></path>
<circle cx="0" cy="0" r="6.426546063800499" fill="#e0ff77" opacity="0.9">
  <animateMotion begin="-3.8558951245205098s" dur="10s" repeatCount="indefinite">
    <mpath xlink:href="#path26"></mpath>
  </animateMotion>
</circle><path id="path27" d="M 1371.1130956978366 21.385753243731696
c 0 29.057158121908035 -7.109730178764731 8.346204992462946 -15.455935171227678 8.346204992462946
S 1340.2012253553814 50.44291136563973 1340.2012253553814 21.385753243731696
s 7.109730178764731 -8.346204992462946 15.455935171227678 -8.346204992462946
S 1371.1130956978366 -7.6714048781763395 1371.1130956978366 21.385753243731696
z" fill="none" stroke="none"></path>
<circle cx="0" cy="0" r="4.543623887895749" fill="#e0ff77" opacity="0.9">
  <animateMotion begin="-1.5582067829168222s" dur="10s" repeatCount="indefinite">
    <mpath xlink:href="#path27"></mpath>
  </animateMotion>
</circle><path id="path28" d="M 1449.2105780409397 75.84492494553771
c 0 24.13866955529702 -5.906270210338632 6.933447638223613 -12.839717848562245 6.933447638223613
S 1423.5311423438152 99.98359450083473 1423.5311423438152 75.84492494553771
s 5.906270210338632 -6.933447638223613 12.839717848562245 -6.933447638223613
S 1449.2105780409397 51.70625539024069 1449.2105780409397 75.84492494553771
z" fill="none" stroke="none"></path>
<circle cx="0" cy="0" r="6.061421633611017" fill="#51cacc" opacity="0.9">
  <animateMotion begin="-7.423737226520249s" dur="10s" repeatCount="indefinite">
    <mpath xlink:href="#path28"></mpath>
  </animateMotion>
</circle><path id="path29" d="M 1422.843305493328 871.3953063026961
c 0 27.973701083847242 -6.84462898860092 8.034999247488038 -14.879628236088958 8.034999247488038
S 1393.08404902115 899.3690073865433 1393.08404902115 871.3953063026961
s 6.84462898860092 -8.034999247488038 14.879628236088958 -8.034999247488038
S 1422.843305493328 843.4216052188489 1422.843305493328 871.3953063026961
z" fill="none" stroke="none"></path>
<circle cx="0" cy="0" r="6.502005521821284" fill="#e0ff77" opacity="0.9">
  <animateMotion begin="-1.9990568216206772s" dur="10s" repeatCount="indefinite">
    <mpath xlink:href="#path29"></mpath>
  </animateMotion>
</circle></g>
</svg>